# xmcd CD database file
#
# Track frame offsets:
#	150
#	20862
#	38633
#	54144
#	72459
#	87320
#	105973
#	122300
#	144798
#	161286
#	189834
#
# Disc length: 2775 seconds
#
# Revision: 0
# Processed by: cddbd v1.5.2PL0 Copyright (c) Steve Scherf et al.
# Submitted via: CDex 1.51
#
DISCID=7b0ad50b
DTITLE=Mike McCarroll - Twanglish
DYEAR=2015
DGENRE=Country
TTITLE0=Mike McCarroll - Children In The Garden
TTITLE1=Mike McCarroll - My Guns
TTITLE2=Mike McCarroll - Somewhere Tween Jesus And Hank
TTITLE3=Mike McCarroll - Twanglish
TTITLE4=Mike McCarroll - Mixed Emotions
TTITLE5=Mike McCarroll - Bluer Than Memphis
TTITLE6=Mike McCarroll - You And Me
TTITLE7=Mike McCarroll - On the Borderline
TTITLE8=Mike McCarroll - Where Nothing's Going On
TTITLE9=Mike McCarroll - Taneytown
TTITLE10=Mike McCarroll - Too Old And Too Country
EXTD=YEAR: 2015
EXTT0=
EXTT1=
EXTT2=
EXTT3=
EXTT4=
EXTT5=
EXTT6=
EXTT7=
EXTT8=
EXTT9=
EXTT10=
PLAYORDER=
